<?xml version="1.0" standalone="no"?>
<!DOCTYPE svg PUBLIC "-//W3C//DTD SVG 1.1//EN" "http://www.w3.org/Graphics/SVG/1.1/DTD/svg11.dtd">
<svg xmlns="http://www.w3.org/2000/svg">
<metadata>Copyright (C) 2014 by original authors @ fontello.com</metadata>
<defs>
<font id="myicons" horiz-adv-x="1000" >
<font-face font-family="myicons" font-weight="400" font-stretch="normal" units-per-em="1000" ascent="850" descent="-150" />
<missing-glyph horiz-adv-x="1000" />
<glyph glyph-name="prev" unicode="&#xe800;" d="m16 350q0 19 15 34l345 346q15 15 35 15t34-15l52-51q15-15 15-35 0-19-15-34l-261-262 261-258q15-15 15-34 0-20-15-35l-52-51q-14-15-34-15t-35 15l-345 345q-15 15-15 35z" horiz-adv-x="527" />
<glyph glyph-name="next" unicode="&#xe801;" d="m16 55q0 20 15 35l261 261-261 259q-15 15-15 34 0 20 15 35l51 51q15 15 35 15t35-15l345-345q15-15 15-35 0-21-15-36l-345-344q-15-15-35-15t-35 15l-51 51q-15 15-15 34z" horiz-adv-x="527" />
<glyph glyph-name="lastfm" unicode="&#xe802;" d="m409 222l34-100q-64-52-168-52-107 0-183 73-77 74-77 199 0 129 80 209 79 79 188 79 111 0 167-45 55-44 91-159l36-116q48-146 202-146 120 0 120 60 0 54-78 72l-78 18q-134 35-134 152 0 89 58 126 59 38 146 38 184 0 198-146l-114-14q-7 70-90 70-82 0-82-62 0-50 66-66l74-16q150-36 150-166 0-160-238-160-136 0-204 53-69 53-100 149l-36 116q-4 10-9 26t-7 22-7 17-10 19-14 19q-32 43-103 43-64 0-113-46t-49-142q0-81 46-130 47-50 110-50 60 0 128 56z" horiz-adv-x="1030" />
<glyph glyph-name="coffee" unicode="&#xe803;" d="m0 64h1000q0-59-42-101t-101-42h-714q-59 0-101 42t-42 101z m143 197v410q0 15 11 26t25 10h642q89 0 152-63t63-151-63-152-152-62h-35v-18q0-52-37-88t-88-37h-393q-51 0-88 37t-37 88z m643 125h35q45 0 76 31t32 76-32 76-76 31h-35v-214z" horiz-adv-x="1071.4" />
<glyph glyph-name="spotify" unicode="&#xe804;" d="m834 690q141-140 141-340 0-126-58-229t-150-165q-108 186-338 192-176 6-296-114-118 137-118 316 0 200 140 340t340 140q197 0 339-140z m-115-470q-188 114-460 54-30-7-22-36 7-30 36-22 245 58 416-46 26-14 40 10 14 26-10 40z m56 146q-103 64-245 84t-287-20q-34-10-24-46 10-33 46-26 111 34 244 19t228-73q32-20 50 12 18 34-12 50z m78 106q20 38-16 62-127 74-314 89t-306-27q-16-3-26-19t-4-35q6-17 21-26t35-4q103 36 271 23 171-14 277-77 38-24 62 14z m-426-468q131-5 186-118-58-16-118-16-125 0-234 62 66 73 166 72z" horiz-adv-x="990" />
<glyph glyph-name="dribble" unicode="&#xe805;" d="m453 480q-48 85-122 193-19 29-24 33-80-39-137-111t-79-163q182 0 362 48z m64-128q-11 31-32 68-183-56-402-56v-14q0-150 100-262 9 15 13 21 42 62 103 119 37 35 94 69t110 51q7 4 14 4z m-284-310l-8 6q6-6 8-6z m148 690z m354-86q-115 98-260 98-49 0-92-12 79-104 146-228 139 53 204 140z m-585-621q-135 135-135 325t135 325 325 135 325-135 135-325-135-325-325-135-325 135z m393 261q-216-74-308-242l-2-2q109-84 242-84 76 0 154 32-24 141-84 298z m42 102l10-20q110 13 230-6 35-6 42-8 0 139-88 246l-8-10q-18-23-68-63-64-50-144-83 14-28 26-56z m34-82q52-146 76-280 139 91 168 262-5 3-39 11-104 24-205 7z" horiz-adv-x="950" />
<glyph glyph-name="bicycle2" unicode="&#xe806;" d="m625 700l-25-50 100-37 0-113-350 0 0 50 50 0 0 25c0 12-13 25-25 25l-125 0c-25 0-25-25-25-25l0-25 75 0 0-50-53-106c-15 3-31 6-47 6-110 0-200-89-200-200s90-200 200-200 200 90 200 200c0 0 50 0 75 0s25 25 25 25c5 74 43 131 92 169 34 26 71 42 108 50l0-52c-86-22-150-99-150-192 0-110 90-200 200-200s200 90 200 200c0 91-62 167-145 191l-55 109 0 125c0 15-12 31-25 36z m-275-250l225 0c-50-25-125-150-125-200l-58 0c-12 49-41 90-83 117z m-150-125c69 0 125-56 125-125s-56-125-125-125-125 56-125 125 56 125 125 125z m550 0c69 0 125-56 125-125s-56-125-125-125-125 56-125 125 56 125 125 125z" horiz-adv-x="950" />
<glyph glyph-name="instagram" unicode="&#xe807;" d="m149-80q-55 0-94 40t-40 96v344h174q-4-28-4-50 0-107 76-183 77-77 184-77 106 0 183 77t77 183q0 26-6 50h176v-344q0-56-39-96t-95-40h-592z m592 860q55 0 95-39t39-95v-146h-218q-78 110-212 110-138 0-212-110h-218v146q0 56 40 95t94 39h592z m-56-166q0-9 8-16t16-8h72q24 0 24 24v72q0 24-24 24h-72q-24 0-24-24v-72z m-80-264q0-65-47-112t-113-48-112 48-48 112q0 67 47 114t113 46 113-46 47-114z" horiz-adv-x="890" />
<glyph glyph-name="evernote" unicode="&#xe808;" d="m677 700q31 0 60-18t28-46q0-1 1-9t2-26 2-38q14-188 8-315-5-106-19-176t-51-121q-38-51-91-51-153 0-194 26-26 20-18 130 1 39 37 59 34 19 69 19l34-2-4-70q-16-2-38-2-19 0-24-26-4-37 40-42l86 4q38 5 28 136-4 30-52 39-69 10-96 17-45 13-73 65-9 17-11 17t-8-58-30-58q-45 0-139 15-95 15-115 35-33 34-62 149-28 113-28 151 0 34 58 30h116q78 0 78 72 0 8-1 56t-1 56q0 82 40 82 89 0 120-14 16-7 28-24t14-36l4-14z m-10-334q-8 28-29 53t-49 25q-26 0-44-21t-22-48q-5-23 0-29 5-4 10-5t7 0 11 2 13 3q17 4 31 4 17 0 59-16 10-4 15 0 6 6-2 32z m-480 276q0-22-28-22h-144l176 172q-4-123-4-150z" horiz-adv-x="796" />
<glyph glyph-name="skype" unicode="&#xe809;" d="m935 132q0-108-75-185t-179-77q-61 0-120 32-56-8-80-8-182 0-311 132t-129 320q0 46 10 90-36 60-36 134 0 107 74 184 73 76 180 76 75 0 136-40 34 8 76 8 183 0 310-132 128-133 128-320 0-49-10-96 26-60 26-118z m-230-2q30 46 30 100 0 45-16 80-17 31-50 54-37 23-76 36-74 21-96 26-97 14-122 50-10 10-10 26 0 24 28 42 26 20 76 20t74-18q27-24 38-50 18-28 26-36 17-12 38-12 26 0 45 19t19 45q0 19-14 52-17 24-42 48-27 21-74 38-50 14-102 14-74 0-128-22-52-19-84-57t-32-95q0-53 28-90 33-39 76-56 48-22 116-36 9-2 80-20 29-10 46-28 18-14 18-42 0-38-37-59t-85-21q-72 0-100 40-25 45-26 46-7 23-24 40-20 14-40 14-26 0-45-17t-19-43q0-45 30-85t70-63q64-34 158-34 78 0 138 24 60 28 88 70z" horiz-adv-x="950" />
<glyph glyph-name="paypal" unicode="&#xe80a;" d="m786 610q88-43 88-162 0-130-110-210-107-80-306-80h-30q-17 0-32-12t-20-28l-36-156q-12-42-52-42h-106q-17 0-27 12t-7 30l6 24h68q17 0 33 13t19 29l36 156q10 40 52 40h30q196 0 306 80 110 83 110 210 0 56-22 96z m-580-516q-2-15-18-28t-32-14h-108q-17 0-26 13t-6 29l150 646q10 40 52 40h224q75 0 126-8 58-13 94-34 35-23 58-62 20-38 20-96 0-130-110-210-107-80-304-80h-32q-16 0-32-12t-18-28z m88 374q-4-16 7-28t25-12h28q86 0 134 36 48 34 48 98 0 47-32 66t-92 18h-34q-42 0-52-40z" horiz-adv-x="889" />
<glyph glyph-name="behance" unicode="&#xe80b;" d="m337 680q81 0 129-45t47-127q0-42-20-76t-50-42l-24-4q57 0 85-40 30-42 31-80v-40q0-52-19-93t-51-61q-53-32-108-38h-342v646h322z m-10-258q31 0 43 18t11 58q0 24-9 44t-25 22l-10 2h-180v-144h170z m76-188q0 40-16 62-17 23-32 24l-18 2h-180v-172h172q74 0 74 84z m394 282q65 0 115-27t70-72q38-82 33-151l-2-30h-320q0-54 27-82t55-28l26-2q45 0 71 17t27 33l2 18h108q0-82-53-124-53-43-105-44l-54-2q-66 0-118 24t-76 63q-44 72-44 133v26q0 37 15 87t39 80 69 54q50 27 115 27z m98-194q0 32-20 65-9 15-30 25t-44 10q-42 0-70-25t-34-51l-6-24h204z m26 320v-78h-256v78h256z" horiz-adv-x="1030" />
<glyph glyph-name="gamepad2" unicode="&#xe80c;" d="m0 279q0 118 84 202t202 83h500q118 0 202-83t83-202-83-202-202-84q-107 0-189 71h-123q-81-71-188-71-119 0-202 84t-84 202z m107-36q0-8 5-13t13-5h107v-107q0-8 5-13t13-5h71q8 0 13 5t5 13v107h107q8 0 13 5t5 13v71q0 8-5 13t-13 5h-107v107q0 8-5 13t-13 5h-71q-8 0-13-5t-5-13v-107h-107q-8 0-13-5t-5-13v-71z m536-36q0-29 21-50t50-21 51 21 21 50-21 51-51 21-50-21-21-51z m143 143q0-30 21-50t50-21 51 21 21 50-21 51-51 20-50-20-21-51z" horiz-adv-x="1071.4" />
<glyph glyph-name="close" unicode="&#xe80d;" d="m467 194q18-18 18-43t-17-42-44-17-43 16l-132 152-132-152q-17-16-43-16t-43 16q-16 17-16 43t16 43l138 156-138 158q-16 17-16 43t16 43q17 16 43 16t43-16l132-152 132 152q17 16 43 16t44-17 17-42-18-43l-138-158z" horiz-adv-x="500" />
<glyph glyph-name="camera" unicode="&#xe80e;" d="m0 64v500q0 59 42 101t101 42h125l28 76q11 27 39 47t58 20h286q29 0 57-20t39-47l29-76h125q59 0 101-42t41-101v-500q0-59-41-101t-101-42h-786q-59 0-101 42t-42 101z m286 250q0-103 73-176t177-74 176 74 74 176-74 177-176 73-177-73-73-177z m89 0q0 67 47 114t114 47 113-47 47-114-47-113-113-47-114 47-47 113z" horiz-adv-x="1071.4" />
<glyph glyph-name=".notdef" unicode="&#xe80f;" d="m33 0v666h265v-666h-265z m33 33h199v600h-199v-600z" horiz-adv-x="364" />
<glyph glyph-name="500px" unicode="&#xe810;" d="m621 53q-67 0-113 35t-72 90q-62-128-203-128-95 0-157 48-61 48-61 138h119q5-40 29-64t65-24q47 0 76 33t29 81q0 48-28 79t-75 31q-38 0-65-24-28-25-51-25-44 0-80 2l28 161q24 132 29 164h330v-98h-243q-13-67-24-134h3q15 19 49 31t67 12q114 0 160-103 22 57 70 93t113 35q44 0 88-18t69-43q24-23 63-66 2-3 6-7l7-7q8 10 22 25l18 20q4 5 14 15t18 17l24 19q54 44 132 44 89 0 145-60t55-152q0-94-55-156-56-63-147-63-116 0-226 131-71-71-81-78-4-3-17-11l-21-14q-44-29-109-29z m-91 213q0-42 26-68t67-26q75 0 155 95l-29 29-19 20q-9 9-48 32-34 20-63 20-38 0-63-31t-26-71z m389 0q30-32 47-46t48-32q29-16 61-16 42 0 67 28t25 70-25 71-68 27q-43 0-86-33z" horiz-adv-x="1292" />
<glyph glyph-name="coffeeline" unicode="&#xe811;" d="m678-15l-625 0q-22 0-37 16t-16 37 16 36 37 16l625 0q21 0 36-16t15-36-15-37-36-16z m25 730q75 0 128-54t54-128-54-129-128-54l-25 0 0-104q0-43-32-74t-73-31l-417 0q-42 0-73 31t-30 74l0 469 650 0z m-130-469l0 364-417 0 0-364 417 0z m130 208q32 0 55 23t23 56q0 31-23 54t-55 23l-78 0 0-156 78 0z" horiz-adv-x="885" />
<glyph glyph-name="ipod" unicode="&#xe812;" d="m199-65v823q0 43 24 66t67 22h513q89 0 89-88v-823q0-41-22-64t-67-23h-513q-43 0-67 23t-24 64z m85 558q0-9 9-17t20-9h463q9 0 18 9t9 17v235q0 12-9 19t-18 7h-463q-11 0-20-7t-9-19v-235z m60-344q0-43 16-80t44-65 65-44 78-16q43 0 80 16t65 44 44 65 16 80q0 42-16 78t-44 64-65 43-80 16q-41 0-78-16t-65-43-44-64-16-78z m118 0q0 36 25 59t60 24 61-24 26-59q0-18-7-34t-19-27-27-19-34-7-34 7-26 19-18 27-7 34z" horiz-adv-x="1100.6" />
<glyph glyph-name="dropbbox" unicode="&#xe813;" d="m15 311l214 163-214 162 311 203 203-174 208 174 302-193-198-165 198-170-307-185-203 156-203-156z m213-251v57l94-55 203 155 1-1v-355z m5 416l294-185 296 196-294 169z m293-615l1 355 2 1 202-155 100 60v-63z" horiz-adv-x="1054" />
<glyph glyph-name="git" unicode="&#xe814;" d="m227 157q82 0 148-43t65-111q0-64-62-108-63-45-151-45-89 0-150 45-62 45-62 108 0 84 100 130-26 40-26 75 0 39 28 74-38 23-63 62t-25 89q0 73 54 126t127 52q55 0 101-31h7q60 0 109 32v-115q-18-10-44-14 7-21 7-50 0-70-50-121t-119-55q-24-29-24-53 0-26 24-48 1 0 3 1t3 0z m-19 358q-29 0-50-24t-22-56 22-55 50-25q30 0 51 24t21 56-21 56-51 24z m19-448q-34 0-61-17t-27-47q0-28 27-46t61-18 62 18 27 46q0 29-27 47t-62 17z m243 702q0 34 24 58t57 23 58-23 24-58-24-58-58-24-57 24-24 58z m19-168h134v-479h-134v479z m181-102h55v-285q9-73 91-99 15-5 31-7h20q22 0 46 7t32 17l7 9 2 99q-40-13-65-13-31 0-36 17l-4 13q0 3-1 4v238h91v102h-91v93h-123v-93h-55v-102z" horiz-adv-x="969" />
<glyph glyph-name="cameraline" unicode="&#xe815;" d="m0 6l0 469q0 35 23 61t55 31l135 23 43 108q12 27 35 43t53 15l312 0q30 0 53-15t35-43l43-108 135-23q33-6 56-31t22-61l0-469q0-39-27-66t-67-28l-812 0q-39 0-67 28t-27 66z m63 0q0-13 8-22t23-9l812 0q14 0 23 9t8 22l0 469q0 27-25 31l-170 28-56 140q-8 20-30 20l-312 0q-22 0-30-20l-56-140-170-28q-25-4-25-31l0-469z m187 282q0 103 73 176t177 74 177-74 73-176-73-177-177-73-177 73-73 177z m63-15q5-77 65-128t137-45 128 65 45 137-66 128-137 45-128-65-44-137z m62 15q0 50 36 87t89 38q16 0 16-16t-16-16q-39 0-66-27t-28-66q0-16-15-16t-16 16z" horiz-adv-x="1000" />
<glyph glyph-name="music" unicode="&#xe816;" d="m10-45q-22 57 5 118 37 76 131 107 39 14 78 14 69 0 119-37l0 537q0 23 15 40t36 22l531 94 12 0q24 0 41-16 22-17 22-47l0-656q0-35-16-66-37-76-131-108-39-13-78-13-60 0-107 28t-65 77q-21 57 6 117 37 77 131 108 39 14 78 14 68 0 119-38l0 379-519-91-12 0 0-500q0-36-16-67-37-76-131-107-39-14-78-14-60 0-107 28t-64 77z m57 22q15-41 66-58t107 3 85 62 13 83-66 57-106-2-85-62-14-83z m337 623l531 94 0 93-531-93 0-94z m256-529q15-41 66-58t107 3 85 62 13 83-66 57-107-3-84-61-14-83z" horiz-adv-x="1000" />
<glyph glyph-name="reddit" unicode="&#xe817;" d="m635 286q28 0 46-27t18-63-18-62-46-28q-30 0-48 28t-18 62 18 63 48 27z m-160-326q-8 0-43 1t-43 1q-110 0-180 29-37 15-74 45t-60 61q-60 84-60 229 0 114 74 194-8 5-1 80t33 140q93-11 228-104 47 12 126 12 84 0 126-12 63 43 119 68 57 25 83 30l26 6q26-65 33-140t-1-80q74-80 74-194 0-203-124-294-37-26-67-40t-76-21q-53-9-107-9-7 0-42-1t-44-1z m2 396h-4q-21 0-85 5t-78 4q-77 3-119-35-52-46-52-120 0-124 84-164 83-40 250-40h4q167 0 251 40 85 40 85 164 0 55-34 100t-85 52q-37 6-113 0-77-6-104-6z m-160-70q28 0 46-27t18-63-18-62-46-28q-30 0-48 28t-18 62 18 63 48 27z" horiz-adv-x="950" />
<glyph glyph-name="flickr" unicode="&#xe818;" d="m211 550q82 0 139-58t57-142-58-141q-59-59-138-59t-138 59q-58 58-58 141t57 142 139 58z m508-400q-79 0-138 59-58 58-58 141t57 142 139 58 139-58 57-142-58-141q-59-59-138-59z" horiz-adv-x="930" />
<glyph glyph-name="bicycle" unicode="&#xe819;" d="m937-31c-131 0-238 107-238 238 0 97 58 180 140 217l-31 72 5-13-217-291v-59h32v-31h-96v31h32v32l-90 9c-16-116-115-205-236-205-131 0-238 107-238 238 0 132 107 239 238 239 35 0 67-8 97-21l60 150-28 75c-11 0-22 0-31 0-30 0-22 32-22 32s2 28 24 28 22-20 57-20c35 0 84-10 84-10s22-30-20-30c-19 0-40 0-60 0l23-81h345l-27 62h-21v31h127v-31h-72l93-196c23 7 46 11 71 11 131 0 238-107 238-239 0-131-107-238-239-238z m-699 445c-114 0-206-93-206-207s92-206 206-206c104 0 190 76 204 176l-165 17c-3-15-15-26-31-26-17 0-31 14-31 31 0 18 14 32 31 32 4 0 8-1 11-2l66 167c-26 11-54 18-85 18z m48-193l159-17c0 1 0 2 0 3 0 74-38 138-96 175l-63-161z m123 314l-49-123c70-42 117-118 117-205 0-2-1-4-1-6l54-6-121 340z m372 21v-19h-348l127-338 240 314-19 43z m156-142c-19 0-39-3-57-8l74-170c15-2 27-15 27-31 0-17-14-32-32-32s-31 15-31 32c0 9 3 17 9 22l-75 168c-71-32-121-104-121-188 0-114 92-206 206-206s207 92 207 206-92 207-207 207z" horiz-adv-x="1171.9" />
<glyph glyph-name="coffee2" unicode="&#xe81a;" d="m203-61h853q8 0-2-14t-26-31-35-30-26-13h-681q-7 0-24 13t-32 30q-16 17-26 31-5 7-5 11 0 3 4 3z m27 323v25h653v34h-653v61h771v-39q4 0 4 4 37 15 75 16h5q35 1 65-10 34-12 60-35t41-56q16-31 16-65 0-35-15-70-14-33-41-60t-63-44q-30-12-60-15-11-1-22-1-18 0-36 3-28 5-53 18t-45 32q-20-31-48-52t-58-40h-420q-40 25-73 55t-55 65-36 78-12 96z m217 518q2 29 24 49t46 34q29 16 66 26-24-21-42-44-16-20-26-43-7-14-7-29 0-9 3-18 4-14 11-27t15-25 21-29 29-37q23-29 27-54 2-7 1-15 0-14-6-27-8-17-25-29t-37-19q12 8 19 22t7 32-7 35-25 36l-32 32t-31 37-23 43q-8 20-8 45v5z m165-346q25 19 45 39 17 17 31 39t16 44q0 16-2 29t-8 27-17 34-29 50q-21 30-24 54-1 7-1 13 0 16 6 29 9 18 26 29t38 18q-27-18-27-50 0-32 38-78 39-40 53-78 8-23 8-46 0-15-4-31-5-31-28-53t-51-38q-32-18-70-31z m372-271q0-2 2-8t3-8q8-18 21-30t31-16q15-5 31-5h3q18 0 36 8 19 9 32 22 13 14 20 30t6 30q0 19-8 35-6 16-19 28t-29 18q-13 5-29 5h-5q-19-1-37-10-14-3-26-14t-21-25q-8-16-11-31-2-8-2-15t2-14z" horiz-adv-x="1452.1" />
<glyph glyph-name="vimeo" unicode="&#xe81b;" d="m911 558q-31-186-171-351-141-167-245-237-33-19-61-20t-55 17-44 39-30 46q-14 28-78 239t-74 223q-27 20-82-16l-20-14-36 50q6 6 21 24l25 28q31 35 100 89 71 56 124 67 58 12 89-42 25-40 38-130 21-126 25-142 28-106 38-134 11-28 18-39 8-11 18-11 41 0 126 166 42 76 6 124t-112 2q23 127 140 188 104 54 182 8 80-47 58-174z" horiz-adv-x="931" />
<glyph glyph-name="twitter" unicode="&#xe81c;" d="m935 636q-37-56-94-98v-24q0-130-60-250-60-121-186-203-127-83-290-83-159 0-290 84 18-2 46-2 131 0 234 80-64 2-111 39t-65 93q9-4 34-4 26 0 50 6-63 13-106 65t-44 121v2q36-20 84-24-84 58-84 158 0 47 26 94 155-189 390-196-6 18-6 42 0 78 56 133t134 55q82 0 136-58 58 12 120 44-19-66-82-104 55 8 108 30z" horiz-adv-x="950" />
<glyph glyph-name="gamepad" unicode="&#xe81d;" d="m204 303q4-28 13-56t17-57 15-57q3-17 8-41t9-47 7-40 3-21q13-59 47-92t74-41q14-3 27-3l54 10q40 15 66 52 15 21 21 45t12 48 14 47 24 41q10 11 20 13t20 1h119q10 0 20-2t20-12q16-18 23-41t13-47 12-48 22-45q27-37 67-52 27-10 53-10l27 3q41 8 75 41t47 92q0 4 3 21t7 40 8 47 9 41q6 28 16 57t17 57 12 56q1 12 1 24 0 16-3 33-10 64-50 109t-94 66q-41 15-85 15-14 0-27-1-60-6-110-45h-286q-50 39-110 45-13 1-26 1-45 0-87-15-54-21-94-66t-49-109q-3-16-3-31 0-13 2-26z m62 129q23 32 63 53t83 23q15 3 30 3 34 0 65-13 45-18 71-63v-3q-31 31-77 41-34 7-67 7-14 0-27-1-47-4-86-17t-55-27v-3z m48-128q0 17 12 29t29 11 30-11 13-29q0-16-13-27t-30-12-29 12-12 27z m72-64q0 17 12 28t28 10q16 0 28-10t12-28-12-27-28-11q-17 0-28 11t-12 27z m0 133q0 16 12 29t28 13q16 0 28-13t12-29q0-17-12-30t-28-13q-17 0-28 13t-12 30z m66-69q0 17 12 29t27 11q17 0 29-11t11-29q0-16-11-27t-29-12q-16 0-27 12t-12 27z m141 169h243q-4-3-8-8-9-10-14-28h-194q-4 10-8 16t-9 12q-5 5-10 8z m37 195q-3 16-3 30 0 46 24 89 30 55 30 88 0 33-26 61-11 11-11 25t11 21q8 9 21 9l0 0q13 0 22-9 33-33 40-68 5-22 5-42 0-12-2-24-4-30-16-55t-17-38q-16-24-18-48 0-5 0-10 0-18 4-34 7-22 19-41t26-34q9-10 7-23t-12-20q-3-4-9-6t-8-3q-16 0-27 14-50 56-60 118z m223-233q20 32 53 51t70 22q13 2 27 2 13 0 26-2 28-3 54-13t46-26 37-34q-1 8-18 16t-45 15-61 10q-19 1-37 1-16 0-31-1-35-3-66-12t-55-29z m66-142q0 10 6 17t16 8h45v46q0 10 3 18t17 8q13 0 20-8t6-18v-46h51q13 0 19-8t6-17q0-13-6-13t-19 1h-51v-59q0-10-6-18t-20-8q-14 0-17 8t-3 18v59h-45q-11 0-17 0t-5 12z" horiz-adv-x="1420.9" />
<glyph glyph-name="facebook" unicode="&#xe81e;" d="m515 644h-142q-16 0-26-16t-10-36v-102h178v-148h-178v-442h-170v442h-152v148h152v86q0 92 59 158t147 66h142v-156z" horiz-adv-x="530" />
<glyph glyph-name="menu" unicode="&#xe81f;" d="m56-45q-17 0-28 11t-12 29v111q0 17 12 28t28 11h869q15 0 27-12t11-27v-111q0-17-11-29t-27-11h-869z m0 300q-17 0-28 12t-12 27v112q0 17 12 28t28 11h869q15 0 27-11t11-28v-112q0-16-11-27t-27-12h-869z m-40 339v112q0 17 12 28t28 11h869q15 0 27-11t11-28v-112q0-15-11-27t-27-12h-869q-17 0-28 11t-12 28z" horiz-adv-x="979" />
<glyph glyph-name="googleplus" unicode="&#xe820;" d="m291 282q-32 45-32 86l2 14h-14q-63 0-110 30-74 44-74 160 0 53 24 99t57 68q75 51 151 51h230v-4q0-22-78-36-27 0-38-6 39-20 54-54t14-98q0-102-68-158-38-38-38-54 0-17 50-64 104-90 104-178 0-140-116-194-67-34-150-34h-4l-4 2q-2-2-4-2-57 0-129 26-47 16-75 58t-28 102 32 101 83 57q89 28 159 28h2z m-20-46q-59-2-109-43t-47-97q4-54 58-82t120-22 103 40q41 37 37 88-4 54-44 85t-102 31h-16z m-20 492q-10 0-20-2-40-12-58-62-15-59-1-109t46-82q33-33 71-33 10 0 18 2 42 12 63 66t3 112q-30 108-122 108z m510-282h150v-94h-150v-150h-94v150h-150v94h150v150h94v-150z" horiz-adv-x="926" />
<glyph glyph-name="circle-empty" unicode="&#xe821;" d="m429 654q-83 0-153-41t-110-111-41-152 41-152 110-111 153-41 152 41 110 111 41 152-41 152-110 111-152 41z m428-304q0-117-57-215t-156-156-215-58-216 58-155 156-58 215 58 215 155 156 216 58 215-58 156-156 57-215z" horiz-adv-x="857.1" />
<glyph glyph-name="pinterest" unicode="&#xe822;" d="m335 190q-24-124-58-211-31-81-96-129-10 120-5 167 2 28 9 63 18 96 48 203 17 59 24 99-24 51-19 116 5 61 47 105t100 21q72-28 31-154-27-85-32-103-15-50-4-90 10-38 63-49 72-15 124 40t71 129q21 81 11 163-11 85-54 128-61 64-151 70-96 6-168-35t-115-115q-46-77-32-170 5-23 22-52 21-36 22-51t-18-63q-146 35-140 230 5 138 105 234 100 95 233 112 164 18 290-57t144-219q26-176-66-317-91-141-252-129-23 2-42 9t-30 14-31 20q-23 16-31 21z" horiz-adv-x="808" />
<glyph glyph-name="download" unicode="&#xe823;" d="m0 46v179q0 22 16 38t38 16h259l75-76q33-32 76-32t76 32l76 76h259q22 0 38-16t16-38v-179q0-22-16-37t-38-16h-821q-23 0-38 16t-16 37z m181 497q10 21 33 21h143v250q0 15 11 25t25 11h143q14 0 25-11t10-25v-250h143q24 0 33-21 10-23-8-40l-250-250q-10-10-25-10t-25 10l-250 250q-17 17-8 40z m462-443q0-14 10-25t26-11 25 11 10 25-10 25-25 11-26-11-10-25z m143 0q0-14 10-25t25-11 26 11 10 25-10 25-26 11-25-11-10-25z" horiz-adv-x="928.6" />
<glyph glyph-name="youtube" unicode="&#xe824;" d="m673 468h-57v32q-35-35-67-35-41 0-41 50v235h58v-216q0-19 16-19t34 22v213h57v-282z m-294 289q35 0 58-19t23-54v-145q0-37-22-57t-62-21q-37 0-60 22t-23 57v145q0 35 25 54t61 18z m-3-48q-9 0-16-6t-7-15v-154q0-23 23-23 25 0 25 23v154q0 8-8 15t-17 6z m-146 141h66l-49-148q-1-2-11-31t-15-44v-159h-64v152q-1 8-27 76l-51 154h66l41-152h5z m545-796q-4-43-34-71t-77-29q-99-4-267-4-170 0-267 4-46 2-77 29t-34 71q-5 87-5 131t5 130q3 44 34 72t77 28q97 5 267 5t267-5q46-1 77-28t34-72q5-86 5-130t-5-131z m-195 49q0-32 18-51t49-20q69 0 69 71v17h-47v-10-10q0-3 0-8t-2-8-4-6-6-4-9-2q-20 0-20 32v43h88v58q0 31-17 49t-48 18-51-19-20-48v-102z m-36 109q0 57-44 57-23 0-42-21v99h-47v-309h47v18q21-20 44-20 42 0 42 50v126z m-179-174v228h-45v-173q-15-17-28-17-12 0-12 15v175h-47v-192q0-39 33-39 26 0 54 28v-25h45z m-131 264v45h-161v-45h54v-264h52v264h55z m435-120h-41v25q0 25 21 25 20 0 20-25v-25z m-172 28v-120q0-18-16-18-13 0-23 9v143q9 9 20 9 19 0 19-23z" horiz-adv-x="793" />
<glyph glyph-name="file-pdf" unicode="&#xe825;" d="m0-96v892q0 23 16 38t38 16h500q22 0 49-11t42-27l174-174q16-16 27-42t11-50v-642q0-23-15-38t-38-16h-750q-23 0-38 16t-16 38z m71 17h715v572h-232q-23 0-38 15t-16 38v233h-429v-858z m72 105q5 23 32 51t73 54q8 5 13-3 1-1 1-2 29 47 60 110 38 76 58 146-13 46-17 89t4 71q6 22 23 22h12q13 0 20-8 10-12 5-38-1-3-2-4 0-2 0-5v-17q-1-68-8-107 31-91 82-133 18-14 47-31 33 4 65 4 82 0 99-27 9-13 1-29 0-1-1-1l-1-2v0q-3-21-39-21-27 0-65 11t-72 29q-123-13-219-46-85-146-135-146-8 0-15 4l-14 7q0 0-3 2-6 6-4 20z m34-3q30 13 77 88-29-22-49-47t-28-41z m153 145q76 30 159 45-1 0-7 5t-9 8q-43 37-71 98-15-48-47-110-16-31-25-46z m68 295q1 4 4 24 0 2 4 24 1 3 3 5-1 0-1 1t0 1-1 1q0 12-7 20 0-1 0-1v-2q-9-23-2-73z m173 101h210q-5 16-12 23l-175 175q-6 7-23 12v-210z m42-374q42-16 69-16 8 0 10 1 0 0-1 1-14 14-78 14z" horiz-adv-x="857.1" />
<glyph glyph-name="linkedin" unicode="&#xe826;" d="m219 698q0-42-30-69t-74-27q-42 0-71 28t-29 68q0 43 29 70t73 26 73-26 29-70z m-198-172h192v-618h-192v618z m306-198q0 98-4 198h166l10-86h4q60 100 190 100 108 0 165-72t57-194v-366h-192v342q0 134-98 134-69 0-98-72-6-12-6-48v-356h-194v420z" horiz-adv-x="930" />
<glyph glyph-name="link" unicode="&#xe827;" d="m115 138q0-37 27-62t62-26q37 0 63 26l42 40q14 14 34 14 19 0 36-14 31-34 0-70l-42-40q-56-56-132-56-78 0-134 56t-56 132q0 78 56 134l148 148q40 39 85 61t96 17 91-44q16-16 16-36t-16-36q-36-31-70 0-50 48-132-34l-148-146q-26-26-26-64z m644 552q56-56 56-132 0-78-56-134l-158-158q-73-72-150-72-62 0-112 50-14 14-14 34 0 21 14 36t35 14 35-14q50-48 122 24l158 156q28 28 28 64 0 38-28 62-25 26-55 31t-61-21l-50-50q-17-14-36-14-20 0-34 14-34 34 0 70l50 50q58 55 130 51t126-61z" horiz-adv-x="830" />
<glyph glyph-name="heart-empty" unicode="&#xe828;" d="m1 521q7 115 79 191l2 0 2 2q88 76 199 76t191-70q32 27 67 45l2 2 2 0q56 23 117 23 88 2 161-44t110-124l0-2 2-3q30-106 10-202t-80-175q-62-88-162-172 0-2-2-2-49-45-107-90-34-25-59-41-33-23-55-23l-6-2-5 2q-28 3-59 29-10 6-21 16t-16 13l-2 0q-246 188-328 340l0 2q-49 94-42 209z m85-10q-6-86 33-162 74-135 303-310l2 0q6-6 18-16t19-14q8-6 15-10 8 2 14 6 22 14 51 37 58 43 105 88 94 80 151 161 107 142 58 298-27 57-78 88t-113 29q-43 0-86-17-39-22-68-57l-32-43-35 43q-52 65-141 72t-161-52q-49-55-55-141z" horiz-adv-x="953" />
<glyph glyph-name="heart" unicode="&#xe829;" d="m1 532q7 111 75 183 94 80 212 70t190-98q38 49 92 79 113 43 217 3t150-140q30-106 10-199t-78-174q-68-94-174-184-53-49-124-103t-93-57q-13 2-28 12t-35 25-24 20q-264 199-348 357-49 96-42 206z" horiz-adv-x="955" />
</font>
</defs>
</svg>
