<?xml version="1.0" encoding="utf-8"?>
<!-- Generator: Adobe Illustrator 24.0.1, SVG Export Plug-In . SVG Version: 6.00 Build 0)  -->
<svg version="1.1" id="Layer_1" xmlns="http://www.w3.org/2000/svg" xmlns:xlink="http://www.w3.org/1999/xlink" x="0px" y="0px"
	 viewBox="0 0 469.3 244.5" style="enable-background:new 0 0 469.3 244.5;" xml:space="preserve">
<style type="text/css">
	.st0{clip-path:url(#SVGID_2_);fill:none;stroke:#161818;stroke-width:31;stroke-linecap:round;stroke-linejoin:round;}
	.st1{clip-path:url(#SVGID_4_);fill:none;stroke:#161818;stroke-width:14;stroke-linecap:round;stroke-linejoin:round;}
	.st2{clip-path:url(#SVGID_6_);fill:none;stroke:#161818;stroke-width:30;stroke-linecap:round;stroke-linejoin:round;}
	.st3{clip-path:url(#SVGID_8_);fill:none;stroke:#161818;stroke-width:31;stroke-linecap:round;stroke-linejoin:round;}
	.st4{clip-path:url(#SVGID_10_);fill:none;stroke:#161818;stroke-width:27;stroke-linecap:round;stroke-linejoin:round;}
	.st5{clip-path:url(#SVGID_12_);fill:none;stroke:#161818;stroke-width:27;stroke-linecap:round;stroke-linejoin:round;}
	.st6{clip-path:url(#SVGID_14_);fill:none;stroke:#161818;stroke-width:26;stroke-linecap:round;stroke-linejoin:round;}
	.st7{clip-path:url(#SVGID_16_);fill:none;stroke:#161818;stroke-width:30;stroke-linecap:round;stroke-linejoin:round;}
	.st8{clip-path:url(#SVGID_18_);fill:none;stroke:#161818;stroke-width:43;stroke-linecap:round;stroke-linejoin:round;}
</style>
<g id="clips">
</g>
<g id="strokes">
	<g>
		<defs>
			<path id="SVGID_1_" d="M110.9,56.8c15.9-30.7-24-57.4-50-36.9C43.5,33.7,30.4,54.1,21.6,81c-6.7,20.5,0,34,17.6,44.5
				c8.7,5.2,17.3,10.3,25.9,15.4c13.8,8.1-3.9,19-16,18.4c-11.2-0.6-18.9-6.5-23-17.5c-1.2-3.1-0.4-4.8-3.7-5.4
				c-4.2-0.8-7.2,1.2-8.9,6C8.2,157.7,32.2,188,60,186.5c17.7-1,30.5-12.9,35.8-24.9c0.5-1.8,0.9-3.6,1.1-5.4c0.1-2.5,0-5-0.4-7.5
				c-0.2-1.1-0.6-2.1-3.4-5.8S82,134,75.6,130.9c-15.5-7.8-30.2-12.3-27.3-32.9c2-14.7,9.2-30.8,21.3-48.2
				c17.2-24.8,31.7-23.1,14.2,9.5c-3.7,7-7.7,14.8-12,23.4c-12.2,24.5,13.4,31.5,21.3,27.7c3.2-1.5,0.1-8.1,1.6-14.8
				C96.8,86.6,102.1,73.7,110.9,56.8z"/>
		</defs>
		<clipPath id="SVGID_2_">
			<use xlink:href="#SVGID_1_"  style="overflow:visible;"/>
		</clipPath>
		<path class="st0" d="M79.3,112.3c0.1-4.7,0.7-9.4,1.5-14.1c0.7-3.7,1.7-7.4,2.9-11c1.3-3.8,3.1-7.4,6.6-14.5
			c4.7-9.5,7-14.2,9-16.5c1.2-1.4,2.3-2.9,3.1-4.6c2.1-4.4,2.4-9.5,0.7-14.1c-0.9-2.9-2.5-5.5-4.6-7.7C96.9,28.2,95,26.9,93,26
			c-2.6-1.2-5.3-1.8-8.1-2c-2.1-0.3-4.3-0.2-6.4,0.2c-2.9,0.7-5.5,2.1-7.7,4c-2,1.7-3,3-5.3,6.2c0,0-4.2,5.6-8.6,11.2
			c-5.1,6.5-5.1,5.3-7.9,9.2c-3.1,4.3-4.6,7.8-7.7,14.8c-2,4.3-3.7,8.7-5.1,13.2c-1.2,4.1-2,8.3-2.4,12.6c-0.5,4.8-0.8,7.3,0.2,10.3
			c0.7,2.3,1.9,3.9,4.2,7.3c1.8,2.7,3.9,5.2,6.2,7.5c2.5,2.5,5.2,4.7,8.1,6.6c3.2,2.2,4.5,2.9,16.1,9.5c2.9,1.7,7.5,4.4,10.8,8.4
			c1.2,1.4,2.1,3.1,2.7,4.8c0.5,1.7,0.7,3.5,0.4,5.3c-0.2,1.5-0.7,2.9-1.3,4.2c-1.8,3.6-4.5,5.6-7.3,7.7s-4.6,3.4-7.7,4.4
			c-2.7,0.9-4.9,0.9-9.5,0.9c-3.2,0-6.3-0.2-9.5-0.7c-3.8-0.5-5.7-0.8-8.2-1.8c-2.5-1-4.8-2.4-6.8-4c-2.6-2-5-4.3-7-6.8
			c-1.9-2.2-3.4-4.6-4.6-7.3c-0.9-2.1-1.5-4.3-2-6.6c-0.6-2.4-1.6-6-3.1-10.4"/>
	</g>
	<g>
		<defs>
			<path id="SVGID_3_" d="M113.4,108c-0.4,0.3-3.4,6.4-4.8,8.2S94,141.1,89.4,148.7s-3.1,9.4-3.1,9.4c0.7,4.1,4,5.6,8.1,5.9
				c0.9-1.5,1.8-3,2.8-4.5c3.5-5.6,6.8-11.4,10-17.6c0,0,10.2-21.3,10.6-24.6S117,105.8,113.4,108z"/>
		</defs>
		<clipPath id="SVGID_4_">
			<use xlink:href="#SVGID_3_"  style="overflow:visible;"/>
		</clipPath>
		<path class="st1" d="M90.8,157c9.6-16.1,19.2-32.3,28.8-48.4"/>
	</g>
	<g>
		<defs>
			<path id="SVGID_5_" d="M161.5,7.5c-4.9-1.3-3.2,1.7-5.1,7.2c-2.2,6.8-6.1,15.1-11.7,24.9l-8.3,16.3
				c-5.2,11.9-15.4,31.5-21.6,49.1c-2.3,4.9-4.9,9.2-6.5,14.9c-1,3.3-1.1,6.8-0.1,10.1l2.6,6c3.7,12.4,16.5,25.4,28.3,23.4
				c6.6-1.1,13-14,17.5-24.8c0.6-1.1,1.2-2.2,1.7-3.4c2.4-4.6,2.8-5,3.8-9.7c1-4.9-1.9-12.2-6.4-10.9c-0.8,0.1-0.8,4.6-1.5,6.7
				c-0.5,1.1-1,2.2-1.5,3.2c-13.1,26.8-18.1,13.4-12.7-6.4c4.2-15.3,11.7-34.2,22.3-56.5l9.3-16.6C181,22.9,177.6,11.8,161.5,7.5z"
				/>
		</defs>
		<clipPath id="SVGID_6_">
			<use xlink:href="#SVGID_5_"  style="overflow:visible;"/>
		</clipPath>
		<path class="st2" d="M167.4,15c-0.1,3.1-0.5,6.2-1.3,9.2c-1,3.7-2.6,7.3-4.6,10.6c-3.9,6.6-7,13.5-10.6,20.2
			c-2.4,4.5-6.5,12.1-11,21.6c-4.2,8.7-6.3,13.2-8.4,19.2c-2.1,6.1-3.7,12.4-4.8,18.7c-1.8,8.8-2,12.8-1.5,16.7
			c0.6,5.6,2.1,8.4,3.3,10.1c1.2,1.8,3.6,5.1,7.5,5.7c3.8,0.6,6.8-1.7,8.6-3.1c3.2-2.4,4.7-5.1,9-13.9c2.4-4.9,4.4-8.9,5.7-11.7"/>
	</g>
	<g>
		<defs>
			<path id="SVGID_7_" d="M247.5,18.1c-2.9-5.7-3.7-0.1-10.1,4.2c-12.3,8.2-57.2,18.5-65.7,18.7s-32.2-1.5-27-1.3s-9.6,0.1-14.2-1.2
				c-3.4-0.9-5.4-3-6.1,0.1c-1.8,8.6,6.3,17,12,17.4l26,1.6c34.5,1.6,61.7-3.1,81.5-14C251.1,36.3,252.3,27.8,247.5,18.1z"/>
		</defs>
		<clipPath id="SVGID_8_">
			<use xlink:href="#SVGID_7_"  style="overflow:visible;"/>
		</clipPath>
		<path class="st3" d="M127.6,43.6c3.4,1.8,6.9,3.3,10.6,4.4c5.9,1.8,10.5,2,21.8,2.2c13.9,0.2,20.9,0.3,25.5,0
			c7.8-0.5,15.6-1.6,23.3-3.3c6.5-1.5,13.1-2.9,20.9-6.4c8.8-3.9,16.8-9.3,23.8-15.9"/>
	</g>
	<g>
		<defs>
			<path id="SVGID_9_" d="M237.3,93.9c-1.1-2.2-10.5-6.3-12.8-1.8c-11.8,29.2-20.9,38.6-33.1,41.5c-11.7,0-16.4-7.4-14.1-22.2
				c17.9,16.1,30.1-1.8,36.6-19c9.9-26-14.9-38.2-31.8-25.1c-3.7,3-7,6.4-9.9,10.1c-9.7,12.2-16.6,29.1-18.2,39.7
				c-0.4,1.4-0.5,2.9-0.4,4.4c0.1,2.6,0.4,5.1,0.9,7.6c0.4,1.8,1,3.6,1.8,5.2c8.3,23.1,33.1,33.3,53.1,3.4
				c4.4-6.6,10.6-16.4,13.3-20.6c2.5-3.7,5.3-7.2,8.2-10.5C234.2,102.3,238.6,96.7,237.3,93.9z M185.5,93.7c2.3-4.6,4.9-9,7.8-13.2
				c6.4-9,12.1-4.8,7.7,4.7c-2.2,4.7-4.4,9.2-6.8,13.4C186.9,111.7,179.1,106.3,185.5,93.7z"/>
		</defs>
		<clipPath id="SVGID_10_">
			<use xlink:href="#SVGID_9_"  style="overflow:visible;"/>
		</clipPath>
		<path class="st4" d="M178,103.7c0.8,2.4,2.1,4.5,4,6.2c3.2,3.6,8.6,4.1,12.6,1.3c2.4-1.5,4.5-3.5,5.9-5.9c1.7-2.5,2.7-4.9,4.6-9.7
			c1.3-2.9,2.3-5.9,3.1-9c1-4.2,1.5-6.3,0.7-8.8c-0.8-2.4-2.5-4.5-4.6-5.9c-2.6-1.6-5.8-2.2-8.8-1.5c-3.2,0.6-5.2,2.2-7.5,4
			s-4.9,4.4-8.4,9.7c-2.8,4.4-5.2,8.9-7.3,13.7c-3.5,7.4-5.2,11.2-5.9,15c-1,4.6-1,9.3,0,13.9c0.9,3.8,2.6,7.3,4.8,10.5
			c2.4,3.5,4.2,6.2,7.9,7.9c3.6,1.6,7.6,1.9,11.4,0.9c3.9-1,7.5-2.9,10.3-5.7c2.9-2.5,4-4.5,8.4-11.2c5.9-9,5-7.1,7.9-11.9
			c4.9-7.8,9.3-15.9,13.2-24.2"/>
	</g>
	<g>
		<defs>
			<path id="SVGID_11_" d="M294.4,37.3c-14.2,12.5-30.4,42.1-44.3,90.3c-11.4-2.2-7.5-27.6,9.7-55.2c5-7.9-15.1-19.3-19.5-11.7
				c-3.7,6.6-7.5,14-11.4,22.2c-0.4,0.9-0.8,1.8-1.2,2.6l-0.2,0.4c-1.1,2.7-2.4,5-3.3,7.3c-1.5,3.2-2.3,6.8-2.3,10.3
				c-0.1,6,0.2,11.9,0.8,17.8c1.3,14.9,14.7,31,37.6,30.2c4.4-0.1,2.7-4.8,3.5-9.7c4.5-30.4,27-70.2,46.5-85.6
				C316.9,51.2,301.3,31.3,294.4,37.3z"/>
		</defs>
		<clipPath id="SVGID_12_">
			<use xlink:href="#SVGID_11_"  style="overflow:visible;"/>
		</clipPath>
		<path class="st5" d="M253.1,60.1c-3.3,6.1-6,11.3-7.9,15.2c-2.3,4.3-4.4,8.7-6.2,13.2c-1.4,3.7-2.6,7.4-3.5,11.2
			c-1.7,6.6-2.5,9.9-2.4,14.5c0,4.2,0.8,8.3,2.4,12.1c1.7,4,4.4,7.5,7.7,10.4c2.8,2.3,12.1,5.3,12.1,5.3s2.4-10.6,5.5-22
			c2.8-9.9,5.2-16.2,11.9-30.2c4.4-9.2,8.6-17.9,16.3-28.2c5.5-7.3,11.7-14,18.5-20"/>
	</g>
	<g>
		<defs>
			<path id="SVGID_13_" d="M365.5,75.7c-0.4,0.6-0.8,1.2-1.1,1.8c-13,29.2-26,44.4-38.6,47.3c-12,0-16.9-7.4-14.5-22.2
				c18.5,16.1,31-1.8,37.8-19c10.3-26-15.4-38.2-32.9-25.1c-3.8,2.9-7.2,6.3-10.2,10c-12.3,14.9-20.1,36.7-19.1,45.7
				c3.4,30.5,33.7,49.2,57.5,14.7c1.3-2,3.7-4.2,6.3-6.9s8.4-8.5,8.4-8.5c3.4-4.2,6.3-8.8,8.6-13.6c2.3-4.5,5.5-9.8,5.6-15.1
				C373.5,80.3,366.2,74.8,365.5,75.7z M319.7,84.9c2.3-4.6,5-9,8-13.2c6.6-9,12.4-4.8,7.9,4.7c-2.2,4.7-4.6,9.2-7,13.4
				C321.1,103,313,97.5,319.7,84.9L319.7,84.9z"/>
		</defs>
		<clipPath id="SVGID_14_">
			<use xlink:href="#SVGID_13_"  style="overflow:visible;"/>
		</clipPath>
		<path class="st6" d="M311.8,95.2c0.8,2.4,2.1,4.5,4,6.2c3.2,3.6,8.6,4.1,12.5,1.3c2.4-1.5,4.5-3.6,6-6c1.7-2.4,2.7-4.9,4.6-9.6
			c1.3-2.9,2.3-5.9,3.1-9c1-4.2,1.5-6.3,0.7-8.8c-0.8-2.5-2.5-4.6-4.7-6c-2.6-1.6-5.8-2.2-8.8-1.5c-3.2,0.6-5.2,2.2-7.5,4
			c-2.2,1.8-4.9,4.4-8.4,9.7c-2.8,4.3-5.2,8.9-7.3,13.6c-3.5,7.4-5.8,10.8-6.6,14.6c-1.1,4.7-1.2,9.6-0.2,14.4
			c1.3,5.3,4.2,9,5.4,10.7c2.4,3.5,5.8,5.2,9.5,6.9c4.9,2.3,8.3,2,10.1,1.6c3.9-1,7.5-2.9,10.4-5.7c2.9-2.5,4-4.5,8.4-11.2
			c5.9-9,5-7.1,7.9-11.9c4.9-7.8,9.3-15.9,13.2-24.2"/>
	</g>
	<g>
		<defs>
			<path id="SVGID_15_" d="M451.5,78c-4.2-1.2-2.9,1.8-3.8,6.3c-0.8,4.5-2.1,8.8-3.7,13.1c-9.7,25-28,26.2-19.1-3.5
				c2.8-9.3,7.1-18.9,8.9-22.9c1-2.1,1.6-4.4,1.9-6.8c1.1-13-16.4-22.2-27.8-15c-4,2.5-7.6,6.7-11,12.8c-2.8-9.4-8.9-13.4-18.3-12.2
				c-3.4,0.5-3.3,5.1-4.8,8.9c-2.6,6.4-6.2,12.8-9.3,19l-1.5,3.1c-0.8,2.2-1.7,4.3-2.8,6.4c-2.4,4.6-8.3,19.4-10,24.5
				c-1,3.7-1.6,7.6-1.7,11.4c1,9,7,15.7,17.3,18c5.7,1.3,3.7-5.2,6.4-12.1c1.1-2.8,2.5-5.7,4.1-9.3c12.5-28.2,23.3-47.3,32.2-57.3
				c3.5-3.3,4.9-2.6,4,2l-11.4,29.4c-2.3,6.1-3.7,12.4-4,18.9c-0.3,14.2,12.3,30.4,27.2,30.4c16,0,30.9-27.5,35-41.3
				C462.2,92.3,462,80.9,451.5,78z"/>
		</defs>
		<clipPath id="SVGID_16_">
			<use xlink:href="#SVGID_15_"  style="overflow:visible;"/>
		</clipPath>
		<path class="st7" d="M389,48.7c-1.5,8.4-3.6,16.7-6.4,24.8c-4.3,12.3-7.4,16.4-13,30.4c-6.4,15.9-11.7,32.4-11,32.7
			c1,0.4,11.5-27,25.4-49.4c6.3-10.2,6.4-8.2,11.6-17c2.2-3.8,5-9.1,10.7-13.4c2-1.7,4.5-2.7,7.1-3c2.4-0.3,4.8,0.5,6.6,2.2
			c2.1,1.7,3.6,4,4.5,6.5c0.7,2.4,0.4,5.8-1.9,12.5c-1.9,5.5-3.6,7-6.4,12.8c-2.5,5.2-3.6,10.1-4.8,16.8c-0.9,5-1.8,10.6,1,16.3
			c0.9,1.8,2.8,5.8,7.3,7.9c3.8,1.6,8.1,1.6,11.9,0c1.1-0.4,3.2-1.5,8.1-7.4c3.7-4.4,7.4-8.9,10.6-16.2c2-4.2,3.4-8.6,4-13.2
			c0.6-5,0.2-10-1.2-14.9"/>
	</g>
	<g>
		<defs>
			<path id="SVGID_17_" d="M403,163.3c-69.3-12.7-199.4,4.7-244.8,22.7c-16.6,6.6-35.2,36.9-18.4,49c4.2,3.1,4.8-0.7,9-4.5
				c38.9-35.3,153-62.9,257.7-53.6c3.6,0.3,6.2,1.9,7-1.4C415.1,167.6,410.8,164.8,403,163.3z"/>
		</defs>
		<clipPath id="SVGID_18_">
			<use xlink:href="#SVGID_17_"  style="overflow:visible;"/>
		</clipPath>
		<path class="st8" d="M127.9,223c11.9-8.3,24.5-15.4,37.7-21.5c17.8-8.1,31.7-11.9,47.9-16.2c23.1-6.1,46.6-10.5,70.4-13.2
			c24.2-3.1,41.2-3.8,60.8-4.7c20.3-0.9,33.2-0.7,48.5,1.6c7.3,1.1,14.6,2.7,21.8,4.6"/>
	</g>
</g>
</svg>
